<svg xmlns="http://www.w3.org/2000/svg" width="820" height="430" viewBox="0 0 820 430" role="img" aria-labelledby="title desc">
  <title id="title">OpportuNest internship platform preview</title>
  <desc id="desc">A generated platform preview for internship workflows, document submission, CV consultation, and chatbot assistance.</desc>
  <defs>
    <linearGradient id="bg" x1="0" x2="1" y1="0" y2="1">
      <stop offset="0" stop-color="#020617"/>
      <stop offset="1" stop-color="#7c2d12"/>
    </linearGradient>
  </defs>
  <rect width="820" height="430" rx="22" fill="url(#bg)"/>
  <rect x="34" y="34" width="752" height="362" rx="18" fill="#0f172a" opacity=".94"/>
  <text x="62" y="82" fill="#e5e7eb" font-family="Inter, Segoe UI, Arial" font-size="30" font-weight="800">OpportuNest</text>
  <text x="62" y="112" fill="#94a3b8" font-family="Inter, Segoe UI, Arial" font-size="15">Internship management for students, alumni, and academic teams</text>
  <rect x="62" y="148" width="448" height="194" rx="16" fill="#111827"/>
  <rect x="94" y="184" width="160" height="16" rx="8" fill="#38bdf8"/>
  <rect x="94" y="220" width="330" height="10" rx="5" fill="#334155"/>
  <rect x="94" y="248" width="285" height="10" rx="5" fill="#334155"/>
  <rect x="94" y="276" width="210" height="10" rx="5" fill="#334155"/>
  <rect x="94" y="310" width="118" height="28" rx="8" fill="#f97316"/>
  <rect x="542" y="148" width="198" height="194" rx="16" fill="#111827"/>
  <circle cx="583" cy="194" r="20" fill="#38bdf8"/>
  <rect x="617" y="180" width="82" height="12" rx="6" fill="#475569"/>
  <rect x="617" y="203" width="55" height="12" rx="6" fill="#334155"/>
  <rect x="566" y="252" width="132" height="34" rx="12" fill="#082f49"/>
  <text x="582" y="274" fill="#e5e7eb" font-family="Inter, Segoe UI, Arial" font-size="13" font-weight="700">AI Chatbot</text>
  <text x="62" y="370" fill="#94a3b8" font-family="Inter, Segoe UI, Arial" font-size="13">Document submission, internship tracking, CV review, and guided support.</text>
</svg>
