<svg xmlns="http://www.w3.org/2000/svg" width="820" height="430" viewBox="0 0 820 430" role="img" aria-labelledby="title desc">
  <title id="title">SmartHR360 platform preview</title>
  <desc id="desc">A generated HR platform preview with modules for retention, workload, career simulation, and policy generation.</desc>
  <defs>
    <linearGradient id="bg" x1="0" x2="1" y1="0" y2="1">
      <stop offset="0" stop-color="#020617"/>
      <stop offset="1" stop-color="#1d4ed8"/>
    </linearGradient>
  </defs>
  <rect width="820" height="430" rx="22" fill="url(#bg)"/>
  <rect x="34" y="34" width="752" height="362" rx="18" fill="#0f172a" opacity=".95"/>
  <text x="62" y="82" fill="#e5e7eb" font-family="Inter, Segoe UI, Arial" font-size="30" font-weight="800">SmartHR360</text>
  <text x="62" y="112" fill="#94a3b8" font-family="Inter, Segoe UI, Arial" font-size="15">AI-assisted people analytics and modular HR operations</text>
  <g font-family="Inter, Segoe UI, Arial">
    <rect x="62" y="146" width="205" height="82" rx="15" fill="#082f49" stroke="#38bdf8" stroke-opacity=".45"/>
    <rect x="307" y="146" width="205" height="82" rx="15" fill="#172554" stroke="#60a5fa" stroke-opacity=".45"/>
    <rect x="552" y="146" width="188" height="82" rx="15" fill="#064e3b" stroke="#34d399" stroke-opacity=".45"/>
    <text x="86" y="178" fill="#38bdf8" font-size="15" font-weight="800">Retention</text>
    <text x="86" y="205" fill="#e5e7eb" font-size="13">Risk signals and action plans</text>
    <text x="331" y="178" fill="#60a5fa" font-size="15" font-weight="800">Workload</text>
    <text x="331" y="205" fill="#e5e7eb" font-size="13">Capacity and balance views</text>
    <text x="576" y="178" fill="#34d399" font-size="15" font-weight="800">Career Sim</text>
    <text x="576" y="205" fill="#e5e7eb" font-size="13">Growth path simulation</text>
  </g>
  <rect x="62" y="260" width="678" height="82" rx="16" fill="#111827"/>
  <circle cx="105" cy="301" r="20" fill="#38bdf8"/>
  <circle cx="205" cy="301" r="20" fill="#60a5fa"/>
  <circle cx="305" cy="301" r="20" fill="#34d399"/>
  <circle cx="405" cy="301" r="20" fill="#facc15"/>
  <circle cx="505" cy="301" r="20" fill="#f97316"/>
  <circle cx="605" cy="301" r="20" fill="#a78bfa"/>
  <path d="M125 301H185M225 301H285M325 301H385M425 301H485M525 301H585" stroke="#475569" stroke-width="5" stroke-linecap="round"/>
  <text x="62" y="370" fill="#94a3b8" font-family="Inter, Segoe UI, Arial" font-size="13">Core HR, policy generation, workload analytics, retention, and career guidance modules.</text>
</svg>
