<svg xmlns="http://www.w3.org/2000/svg" width="760" height="430" viewBox="0 0 760 430" role="img" aria-labelledby="title desc">
  <title id="title">GitHub pulse for NawfalRAZOUK7</title>
  <desc id="desc">Dynamic profile pulse generated from public repositories, profile metrics, and language usage.</desc>
  <defs>
    <linearGradient id="bg" x1="0" x2="1" y1="0" y2="1">
      <stop offset="0%" stop-color="#020617"/>
      <stop offset="50%" stop-color="#0f172a"/>
      <stop offset="100%" stop-color="#082f49"/>
    </linearGradient>
  </defs>
  <rect width="760" height="430" rx="20" fill="url(#bg)"/>
  <rect x="1" y="1" width="758" height="428" rx="19" fill="none" stroke="#38bdf8" stroke-opacity=".24"/>
  <g font-family="Inter, Segoe UI, Arial, sans-serif">
    <text x="34" y="46" fill="#e5e7eb" font-size="27" font-weight="900">GitHub Pulse</text>
    <text x="34" y="72" fill="#94a3b8" font-size="13">Public GitHub data - 2026-08-01 08:34 UTC</text>
    <text x="398" y="46" fill="#e5e7eb" font-size="22" font-weight="800">Language Signal</text>
    <text x="398" y="72" fill="#94a3b8" font-size="13">Weighted public repository code mix</text>

  <g transform="translate(34 112)">
    <rect width="152" height="94" rx="14" fill="#0f172a" stroke="#38bdf8" stroke-opacity=".42"/>
    <text x="18" y="30" fill="#38bdf8" font-size="12" font-weight="800">Public Repos</text>
    <text x="18" y="62" fill="#f8fafc" font-size="30" font-weight="900">96</text>
    <text x="18" y="80" fill="#94a3b8" font-size="11">visible projects</text>
  </g>
  <g transform="translate(206 112)">
    <rect width="152" height="94" rx="14" fill="#0f172a" stroke="#22c55e" stroke-opacity=".42"/>
    <text x="18" y="30" fill="#22c55e" font-size="12" font-weight="800">Followers</text>
    <text x="18" y="62" fill="#f8fafc" font-size="30" font-weight="900">19</text>
    <text x="18" y="80" fill="#94a3b8" font-size="11">community signal</text>
  </g>
  <g transform="translate(34 226)">
    <rect width="152" height="94" rx="14" fill="#0f172a" stroke="#facc15" stroke-opacity=".42"/>
    <text x="18" y="30" fill="#facc15" font-size="12" font-weight="800">Stars</text>
    <text x="18" y="62" fill="#f8fafc" font-size="30" font-weight="900">10</text>
    <text x="18" y="80" fill="#94a3b8" font-size="11">across public repos</text>
  </g>
  <g transform="translate(206 226)">
    <rect width="152" height="94" rx="14" fill="#0f172a" stroke="#f97316" stroke-opacity=".42"/>
    <text x="18" y="30" fill="#f97316" font-size="12" font-weight="800">Active Repos</text>
    <text x="18" y="62" fill="#f8fafc" font-size="30" font-weight="900">17</text>
    <text x="18" y="80" fill="#94a3b8" font-size="11">updated in 120 days</text>
  </g>
    <rect x="34" y="342" width="324" height="52" rx="14" fill="#111827" stroke="#334155"/>
    <text x="54" y="365" fill="#94a3b8" font-size="12" font-weight="700">Latest public activity</text>
    <text x="54" y="386" fill="#e5e7eb" font-size="18" font-weight="800">NawfalRAZOUK7</text>

  <g transform="translate(398 132)">
    <text x="0" y="13" fill="#e5e7eb" font-size="13" font-weight="700">Python</text>
    <text x="300" y="13" text-anchor="end" fill="#94a3b8" font-size="12">22.6%</text>
    <rect x="0" y="23" width="300" height="8" rx="4" fill="#1e293b"/>
    <rect x="0" y="23" width="58" height="8" rx="4" fill="#38bdf8"/>
  </g>
  <g transform="translate(398 174)">
    <text x="0" y="13" fill="#e5e7eb" font-size="13" font-weight="700">JavaScript</text>
    <text x="300" y="13" text-anchor="end" fill="#94a3b8" font-size="12">17.6%</text>
    <rect x="0" y="23" width="300" height="8" rx="4" fill="#1e293b"/>
    <rect x="0" y="23" width="45" height="8" rx="4" fill="#22c55e"/>
  </g>
  <g transform="translate(398 216)">
    <text x="0" y="13" fill="#e5e7eb" font-size="13" font-weight="700">HTML</text>
    <text x="300" y="13" text-anchor="end" fill="#94a3b8" font-size="12">17.5%</text>
    <rect x="0" y="23" width="300" height="8" rx="4" fill="#1e293b"/>
    <rect x="0" y="23" width="45" height="8" rx="4" fill="#facc15"/>
  </g>
  <g transform="translate(398 258)">
    <text x="0" y="13" fill="#e5e7eb" font-size="13" font-weight="700">TypeScript</text>
    <text x="300" y="13" text-anchor="end" fill="#94a3b8" font-size="12">16.6%</text>
    <rect x="0" y="23" width="300" height="8" rx="4" fill="#1e293b"/>
    <rect x="0" y="23" width="42" height="8" rx="4" fill="#f97316"/>
  </g>
  <g transform="translate(398 300)">
    <text x="0" y="13" fill="#e5e7eb" font-size="13" font-weight="700">Jupyter Notebook</text>
    <text x="300" y="13" text-anchor="end" fill="#94a3b8" font-size="12">12.6%</text>
    <rect x="0" y="23" width="300" height="8" rx="4" fill="#1e293b"/>
    <rect x="0" y="23" width="32" height="8" rx="4" fill="#a78bfa"/>
  </g>
  <g transform="translate(398 342)">
    <text x="0" y="13" fill="#e5e7eb" font-size="13" font-weight="700">Dart</text>
    <text x="300" y="13" text-anchor="end" fill="#94a3b8" font-size="12">6.1%</text>
    <rect x="0" y="23" width="300" height="8" rx="4" fill="#1e293b"/>
    <rect x="0" y="23" width="16" height="8" rx="4" fill="#14b8a6"/>
  </g>
  </g>
</svg>
